<svg xmlns="http://www.w3.org/2000/svg" width="1180" height="620" viewBox="0 0 1180 620">
<defs>
<linearGradient id="card" x1="0%" y1="0%" x2="100%" y2="100%">
<stop offset="0%" stop-color="#ffffff" stop-opacity="0.98"/>
<stop offset="100%" stop-color="#f6f8fb" stop-opacity="0.98"/>
</linearGradient>
</defs>
<rect x="0" y="0" width="1180" height="620" rx="28" fill="#eef3f8"/>
<rect x="18" y="18" width="1144" height="584" rx="24" fill="url(#card)" stroke="#dfe6ee"/>
<text x="40" y="58" font-family="Segoe UI, Pretendard, sans-serif" font-size="26" font-weight="700" fill="#191f28">Top_tb Pipeline Event Coverage</text>
<text x="58" y="128" font-family="Segoe UI, Pretendard, sans-serif" font-size="18" fill="#191f28">redirect</text>
<rect x="220" y="104" width="820" height="34" rx="10" fill="#edf2f7"/>
<rect x="220" y="104" width="136" height="34" rx="10" fill="#3182f6"/>
<text x="1060" y="128" text-anchor="end" font-family="Segoe UI, Pretendard, sans-serif" font-size="19" font-weight="700" fill="#191f28">11</text>
<text x="58" y="174" font-family="Segoe UI, Pretendard, sans-serif" font-size="18" fill="#191f28">stall</text>
<rect x="220" y="150" width="820" height="34" rx="10" fill="#edf2f7"/>
<rect x="220" y="150" width="0" height="34" rx="10" fill="#191f28"/>
<text x="1060" y="174" text-anchor="end" font-family="Segoe UI, Pretendard, sans-serif" font-size="19" font-weight="700" fill="#191f28">0</text>
<text x="58" y="220" font-family="Segoe UI, Pretendard, sans-serif" font-size="18" fill="#191f28">memwrite</text>
<rect x="220" y="196" width="820" height="34" rx="10" fill="#edf2f7"/>
<rect x="220" y="196" width="49" height="34" rx="10" fill="#f04452"/>
<text x="1060" y="220" text-anchor="end" font-family="Segoe UI, Pretendard, sans-serif" font-size="19" font-weight="700" fill="#191f28">4</text>
<text x="58" y="266" font-family="Segoe UI, Pretendard, sans-serif" font-size="18" fill="#191f28">regwrite</text>
<rect x="220" y="242" width="820" height="34" rx="10" fill="#edf2f7"/>
<rect x="220" y="242" width="820" height="34" rx="10" fill="#08b47f"/>
<text x="1060" y="266" text-anchor="end" font-family="Segoe UI, Pretendard, sans-serif" font-size="19" font-weight="700" fill="#191f28">66</text>
<text x="58" y="312" font-family="Segoe UI, Pretendard, sans-serif" font-size="18" fill="#191f28">illegal</text>
<rect x="220" y="288" width="820" height="34" rx="10" fill="#edf2f7"/>
<rect x="220" y="288" width="0" height="34" rx="10" fill="#b42318"/>
<text x="1060" y="312" text-anchor="end" font-family="Segoe UI, Pretendard, sans-serif" font-size="19" font-weight="700" fill="#191f28">0</text>
<text x="58" y="358" font-family="Segoe UI, Pretendard, sans-serif" font-size="18" fill="#191f28">fwdA=1</text>
<rect x="220" y="334" width="820" height="34" rx="10" fill="#edf2f7"/>
<rect x="220" y="334" width="37" height="34" rx="10" fill="#ffb020"/>
<text x="1060" y="358" text-anchor="end" font-family="Segoe UI, Pretendard, sans-serif" font-size="19" font-weight="700" fill="#191f28">3</text>
<text x="58" y="404" font-family="Segoe UI, Pretendard, sans-serif" font-size="18" fill="#191f28">fwdA=2</text>
<rect x="220" y="380" width="820" height="34" rx="10" fill="#edf2f7"/>
<rect x="220" y="380" width="86" height="34" rx="10" fill="#735bf2"/>
<text x="1060" y="404" text-anchor="end" font-family="Segoe UI, Pretendard, sans-serif" font-size="19" font-weight="700" fill="#191f28">7</text>
<text x="58" y="450" font-family="Segoe UI, Pretendard, sans-serif" font-size="18" fill="#191f28">fwdB=1</text>
<rect x="220" y="426" width="820" height="34" rx="10" fill="#edf2f7"/>
<rect x="220" y="426" width="12" height="34" rx="10" fill="#00a3ad"/>
<text x="1060" y="450" text-anchor="end" font-family="Segoe UI, Pretendard, sans-serif" font-size="19" font-weight="700" fill="#191f28">1</text>
<text x="58" y="496" font-family="Segoe UI, Pretendard, sans-serif" font-size="18" fill="#191f28">fwdB=2</text>
<rect x="220" y="472" width="820" height="34" rx="10" fill="#edf2f7"/>
<rect x="220" y="472" width="37" height="34" rx="10" fill="#8b95a1"/>
<text x="1060" y="496" text-anchor="end" font-family="Segoe UI, Pretendard, sans-serif" font-size="19" font-weight="700" fill="#191f28">3</text>
<text x="60" y="564" font-family="Segoe UI, Pretendard, sans-serif" font-size="16" fill="#6b7684">Functional coverage reported by Top_tb covergroup: 76.82%</text>
</svg>
