<svg xmlns="http://www.w3.org/2000/svg" width="1180" height="540" viewBox="0 0 1180 540">
<defs>
<linearGradient id="card" x1="0%" y1="0%" x2="100%" y2="100%">
<stop offset="0%" stop-color="#ffffff" stop-opacity="0.98"/>
<stop offset="100%" stop-color="#f6f8fb" stop-opacity="0.98"/>
</linearGradient>
</defs>
<rect x="0" y="0" width="1180" height="540" rx="28" fill="#eef3f8"/>
<rect x="18" y="18" width="1144" height="504" rx="24" fill="url(#card)" stroke="#dfe6ee"/>
<text x="40" y="58" font-family="Segoe UI, Pretendard, sans-serif" font-size="26" font-weight="700" fill="#191f28">RV32I Verification Flow Summary</text>
<rect x="50" y="96" width="520" height="384" rx="22" fill="#ffffff" stroke="#e5e8eb"/>
<text x="78" y="138" font-family="Segoe UI, Pretendard, sans-serif" font-size="28" font-weight="700" fill="#191f28">Pipeline TB</text>
<rect x="406" y="114" width="128" height="34" rx="17" fill="#08b47f" fill-opacity="0.12"/>
<text x="446" y="137" font-family="Segoe UI, Pretendard, sans-serif" font-size="15" font-weight="700" fill="#08b47f">PASS</text>
<text x="78" y="184" font-family="Segoe UI, Pretendard, sans-serif" font-size="15" fill="#6b7684">Retire Rows</text>
<text x="502" y="184" text-anchor="end" font-family="Segoe UI, Pretendard, sans-serif" font-size="18" font-weight="700" fill="#191f28">84</text>
<rect x="78" y="200" width="424" height="14" rx="7" fill="#edf2f7"/>
<rect x="78" y="200" width="424" height="14" rx="7" fill="#08b47f"/>
<text x="78" y="258" font-family="Segoe UI, Pretendard, sans-serif" font-size="15" fill="#6b7684">Row Pass</text>
<text x="502" y="258" text-anchor="end" font-family="Segoe UI, Pretendard, sans-serif" font-size="18" font-weight="700" fill="#191f28">84</text>
<rect x="78" y="274" width="424" height="14" rx="7" fill="#edf2f7"/>
<rect x="78" y="274" width="424" height="14" rx="7" fill="#08b47f"/>
<text x="78" y="332" font-family="Segoe UI, Pretendard, sans-serif" font-size="15" fill="#6b7684">Mem Checks</text>
<text x="502" y="332" text-anchor="end" font-family="Segoe UI, Pretendard, sans-serif" font-size="18" font-weight="700" fill="#191f28">2</text>
<rect x="78" y="348" width="424" height="14" rx="7" fill="#edf2f7"/>
<rect x="78" y="348" width="424" height="14" rx="7" fill="#08b47f"/>
<text x="78" y="406" font-family="Segoe UI, Pretendard, sans-serif" font-size="15" fill="#6b7684">Coverage</text>
<text x="502" y="406" text-anchor="end" font-family="Segoe UI, Pretendard, sans-serif" font-size="18" font-weight="700" fill="#191f28">N/A</text>
<rect x="78" y="422" width="424" height="14" rx="7" fill="#edf2f7"/>
<rect x="78" y="422" width="0" height="14" rx="7" fill="#3182f6"/>
<text x="78" y="426" font-family="Segoe UI, Pretendard, sans-serif" font-size="15" fill="#6b7684">Cycles</text>
<text x="160" y="426" font-family="Segoe UI, Pretendard, sans-serif" font-size="17" font-weight="700" fill="#191f28">4 -> 105</text>
<text x="78" y="456" font-family="Segoe UI, Pretendard, sans-serif" font-size="15" fill="#6b7684">Final Mem</text>
<text x="160" y="456" font-family="Segoe UI, Pretendard, sans-serif" font-size="17" font-weight="700" fill="#191f28">0x00000014, 0xf2347f80</text>
<rect x="590" y="96" width="520" height="384" rx="22" fill="#ffffff" stroke="#e5e8eb"/>
<text x="618" y="138" font-family="Segoe UI, Pretendard, sans-serif" font-size="28" font-weight="700" fill="#191f28">Top_tb Class Env</text>
<rect x="946" y="114" width="128" height="34" rx="17" fill="#08b47f" fill-opacity="0.12"/>
<text x="986" y="137" font-family="Segoe UI, Pretendard, sans-serif" font-size="15" font-weight="700" fill="#08b47f">PASS</text>
<text x="618" y="184" font-family="Segoe UI, Pretendard, sans-serif" font-size="15" fill="#6b7684">Retire Rows</text>
<text x="1042" y="184" text-anchor="end" font-family="Segoe UI, Pretendard, sans-serif" font-size="18" font-weight="700" fill="#191f28">84</text>
<rect x="618" y="200" width="424" height="14" rx="7" fill="#edf2f7"/>
<rect x="618" y="200" width="424" height="14" rx="7" fill="#08b47f"/>
<text x="618" y="258" font-family="Segoe UI, Pretendard, sans-serif" font-size="15" fill="#6b7684">Row Pass</text>
<text x="1042" y="258" text-anchor="end" font-family="Segoe UI, Pretendard, sans-serif" font-size="18" font-weight="700" fill="#191f28">84</text>
<rect x="618" y="274" width="424" height="14" rx="7" fill="#edf2f7"/>
<rect x="618" y="274" width="424" height="14" rx="7" fill="#08b47f"/>
<text x="618" y="332" font-family="Segoe UI, Pretendard, sans-serif" font-size="15" fill="#6b7684">Mem Checks</text>
<text x="1042" y="332" text-anchor="end" font-family="Segoe UI, Pretendard, sans-serif" font-size="18" font-weight="700" fill="#191f28">2</text>
<rect x="618" y="348" width="424" height="14" rx="7" fill="#edf2f7"/>
<rect x="618" y="348" width="424" height="14" rx="7" fill="#08b47f"/>
<text x="618" y="406" font-family="Segoe UI, Pretendard, sans-serif" font-size="15" fill="#6b7684">Coverage</text>
<text x="1042" y="406" text-anchor="end" font-family="Segoe UI, Pretendard, sans-serif" font-size="18" font-weight="700" fill="#191f28">76.82%</text>
<rect x="618" y="422" width="424" height="14" rx="7" fill="#edf2f7"/>
<rect x="618" y="422" width="325" height="14" rx="7" fill="#3182f6"/>
<text x="618" y="426" font-family="Segoe UI, Pretendard, sans-serif" font-size="15" fill="#6b7684">Cycles</text>
<text x="700" y="426" font-family="Segoe UI, Pretendard, sans-serif" font-size="17" font-weight="700" fill="#191f28">5 -> 106</text>
<text x="618" y="456" font-family="Segoe UI, Pretendard, sans-serif" font-size="15" fill="#6b7684">Final Mem</text>
<text x="700" y="456" font-family="Segoe UI, Pretendard, sans-serif" font-size="17" font-weight="700" fill="#191f28">0x00000014, 0xf2347f80</text>
</svg>
